<?xml version="1.0" standalone="no"?>
<!DOCTYPE svg PUBLIC "-//W3C//DTD SVG 20010904//EN"
 "http://www.w3.org/TR/2001/REC-SVG-20010904/DTD/svg10.dtd">
<svg version="1.0" xmlns="http://www.w3.org/2000/svg"
 width="215.000000pt" height="114.000000pt" viewBox="0 0 215.000000 114.000000"
 preserveAspectRatio="xMidYMid meet">
<metadata>
Created by potrace 1.10, written by Peter Selinger 2001-2011
</metadata>
<g transform="translate(0.000000,114.000000) scale(0.100000,-0.100000)"
fill="#000000" stroke="none">
<path d="M837 1133 c-4 -3 -7 -260 -7 -570 0 -556 0 -563 20 -563 20 0 20 7
20 570 0 468 -2 570 -13 570 -8 0 -17 -3 -20 -7z"/>
<path d="M256 1104 c-99 -31 -169 -94 -212 -188 -22 -49 -27 -74 -27 -140 0
-120 46 -213 136 -274 175 -120 416 -54 505 136 23 49 27 71 27 147 0 83 -2
95 -34 153 -19 34 -50 77 -70 94 -85 75 -222 105 -325 72z m163 -5 c77 -25 95
-34 140 -69 149 -118 154 -351 9 -486 -67 -63 -126 -86 -218 -86 -113 -1 -200
43 -265 133 -43 60 -49 81 -46 159 4 113 34 191 98 252 38 37 119 78 153 78 9
0 23 7 30 15 15 18 50 19 99 4z"/>
<path d="M1140 885 l0 -155 90 0 90 0 0 -145 0 -145 175 0 175 0 0 145 0 145
140 0 140 0 0 139 c0 77 3 146 6 155 6 14 -34 16 -405 16 l-411 0 0 -155z
m170 0 l0 -145 -64 0 c-41 0 -68 5 -72 12 -13 21 -4 262 9 270 7 4 38 8 70 8
l57 0 0 -145z m630 0 l0 -145 -130 0 -130 0 0 145 0 145 130 0 130 0 0 -145z
m-287 111 c4 -6 5 -69 2 -141 -3 -71 -8 -185 -11 -252 -6 -137 0 -130 -94
-135 l-55 -3 -3 265 c-1 146 -1 269 2 275 5 14 148 6 159 -9z m-205 5 l22 -1
0 -261 0 -260 -52 3 -53 3 -6 115 c-3 63 -9 126 -13 140 -4 14 -7 74 -6 134 1
119 7 133 58 130 15 -1 37 -3 50 -3z"/>
<path d="M20 218 l0 -133 335 0 335 0 0 133 0 132 -335 0 -335 0 0 -132z m608
83 c9 -5 12 -30 10 -87 l-3 -79 -285 0 -285 0 -3 79 c-2 57 1 82 10 87 17 11
539 11 556 0z"/>
<path d="M1018 220 l-3 -80 565 0 565 0 -3 80 -4 80 -558 0 -558 0 -4 -80z
m1082 25 c6 -8 10 -22 8 -32 -3 -17 -31 -18 -523 -18 l-520 0 -3 24 c-2 13 2
28 10 32 7 5 239 9 514 9 426 0 503 -2 514 -15z"/>
</g>
</svg>
